<svg width="36" height="26" viewBox="0 0 36 26" fill="none" xmlns="http://www.w3.org/2000/svg">
<rect width="36" height="26" rx="3" fill="white"/>
<path d="M17.9962 7.48145C15.79 7.48145 13.8837 8.78145 13.0025 10.6564C12.99 11.2377 13.04 13.0064 14.1462 13.7064C15.14 14.3377 16.4337 14.6064 17.9962 13.0002C19.5587 11.3939 20.8837 11.7002 21.5837 12.0314C22.2837 12.3627 23.215 13.1689 22.99 15.3439H22.9962C23.3275 14.6314 23.515 13.8377 23.515 13.0002C23.515 9.9502 21.0462 7.48145 17.9962 7.48145Z" fill="#C60C30"/>
<path d="M22.9902 15.3437C23.2214 13.175 22.2839 12.3625 21.5839 12.0312C20.8839 11.7 19.5527 11.3875 17.9964 13C16.4402 14.6125 15.1402 14.3375 14.1464 13.7062C13.0402 13.0062 12.9839 11.2375 13.0027 10.6562C12.6714 11.3687 12.4777 12.1625 12.4777 13C12.4777 16.05 14.9464 18.5187 17.9964 18.5187C20.2027 18.5187 22.1089 17.2187 22.9902 15.3437Z" fill="#003478"/>
<path d="M9.56915 15.3137L8.81506 15.8164L11.8763 20.4086L12.6304 19.9059L9.56915 15.3137Z" fill="black"/>
<path d="M7.28107 16.8386L6.52698 17.3413L9.58823 21.9335L10.3423 21.4308L7.28107 16.8386Z" fill="black"/>
<path d="M8.42645 16.0813L7.67236 16.584L9.07298 18.685L9.82707 18.1823L8.42645 16.0813Z" fill="black"/>
<path d="M9.33167 19.0688L10.7317 21.1688L11.4879 20.6688L10.0817 18.5625L9.33167 19.0688Z" fill="black"/>
<path d="M29.475 17.3311L28.7187 16.8311L27.325 18.9373L28.075 19.4373L29.475 17.3311Z" fill="black"/>
<path d="M25.6687 21.4314L26.4187 21.9314L27.8187 19.8252L27.0625 19.3252L25.6687 21.4314Z" fill="black"/>
<path d="M28.3246 16.5752L27.5683 16.0752L26.1746 18.1752L26.9308 18.6814L28.3246 16.5752Z" fill="black"/>
<path d="M24.5251 20.6688L25.2751 21.1688L26.6751 19.0688L25.9189 18.5688L24.5251 20.6688Z" fill="black"/>
<path d="M23.3748 19.9124L24.131 20.4124L25.5248 18.3124L24.7685 17.8062L23.3748 19.9124Z" fill="black"/>
<path d="M26.4281 15.3119L25.032 17.416L25.7872 17.9171L27.1832 15.813L26.4281 15.3119Z" fill="black"/>
<path d="M28.3256 9.41299L27.5694 9.91924L24.5256 5.31299L25.2819 4.81299L28.3256 9.41299Z" fill="black"/>
<path d="M28.7189 9.15654L29.4752 8.65654L28.0814 6.55029L27.3252 7.05029L28.7189 9.15654Z" fill="black"/>
<path d="M26.4316 4.05664L25.6691 4.55039L27.0628 6.66289L27.8191 6.16289L26.4316 4.05664Z" fill="black"/>
<path d="M25.7892 8.06625L25.0334 8.56641L26.427 10.672L27.1827 10.1718L25.7892 8.06625Z" fill="black"/>
<path d="M24.1383 5.56934L23.3821 6.06934L24.7758 8.17559L25.5258 7.67559L24.1383 5.56934Z" fill="black"/>
<path d="M9.56863 10.6753L8.81238 10.169L11.8811 5.58154L12.6311 6.08779L9.56863 10.6753Z" fill="black"/>
<path d="M8.4252 9.90684L7.66895 9.40059L10.7377 4.81934L11.4939 5.31934L8.4252 9.90684Z" fill="black"/>
<path d="M7.28164 9.14414L6.52539 8.63789L9.59414 4.05664L10.3504 4.55664L7.28164 9.14414Z" fill="black"/>
</svg>
