<svg width="62" height="62" viewBox="0 0 62 62" fill="none" xmlns="http://www.w3.org/2000/svg">
<path d="M31 0C22.7802 0 14.8897 3.26808 9.08203 9.07961C3.26838 14.8934 0.0016104 22.7781 0 31C0 39.2184 3.26953 47.1089 9.08203 52.9204C14.8897 58.7319 22.7802 62 31 62C39.2198 62 47.1103 58.7319 52.918 52.9204C58.7305 47.1089 62 39.2184 62 31C62 22.7816 58.7305 14.8911 52.918 9.07961C47.1103 3.26808 39.2198 0 31 0Z" fill="black"/>
<path d="M21.906 19.8398C20.7002 19.8398 19.5437 20.3102 18.6911 21.1473C17.8384 21.9845 17.3594 23.1199 17.3594 24.3038V24.7525L30.9994 31.9641L44.6394 24.7547V24.3038C44.6394 23.1199 44.1604 21.9845 43.3077 21.1473C42.455 20.3102 41.2986 19.8398 40.0927 19.8398H21.906ZM44.6394 27.288L31.5382 34.2139C31.3726 34.3014 31.1874 34.3473 30.9994 34.3473C30.8113 34.3473 30.6262 34.3014 30.4606 34.2139L17.3594 27.288V37.6958C17.3594 38.8798 17.8384 40.0152 18.6911 40.8524C19.5437 41.6895 20.7002 42.1598 21.906 42.1598H40.0927C41.2986 42.1598 42.455 41.6895 43.3077 40.8524C44.1604 40.0152 44.6394 38.8798 44.6394 37.6958V27.288Z" fill="white"/>
</svg>
